<svg xmlns="http://www.w3.org/2000/svg" viewBox="0 0 314 72" width="314" height="72" role="img" aria-label="nyaion / tech">
  
  <svg x="6" y="8" width="56" height="56" viewBox="0 0 64 64"><rect width="64" height="64" rx="16" fill="#111827"/><path d="M15 49 L15 23 L13.5 14 L22 19 C30 12 42 14 49 26 L49 49 L37 49 L37 27 A5 5 0 0 0 27 27 L27 49 Z" fill="#ffffff"/></svg>
  <path transform="translate(80.00,48.00) scale(0.03400,-0.03400)" d="M83.625 0.0Q73 0 65.75 7.25Q58.5 14.5 58.5 25.125V494.875Q58.5 505.5 65.75 512.75Q73 520 83.625 520.0H199.375Q210 520 217.25 512.75Q224.5 505.5 224.5 494.875V456.625Q250.25 487.875 292.1875 508.9375Q334.125 530.0 391.25 530.0Q448.625 530.0 493.1875 503.9375Q537.75 477.875 563.375 427.6875Q589.0 377.5 589.0 304.125V25.125Q589.0 14.5 581.75 7.25Q574.5 0.0 563.875 0.0H438.125Q427.5 0.0 420.25 7.25Q413.0 14.5 413.0 25.125V297.875Q413.0 344.75 390.25 370.5625Q367.5 396.375 324.375 396.375Q282.75 396.375 258.3125 370.5625Q233.875 344.75 233.875 297.875V25.125Q233.875 14.5 226.625 7.25Q219.375 0.0 208.75 0.0ZM798.875 -190.0Q790.25 -190.0 783.9375 -184.0Q777.625 -178.0 777.625 -169.375Q777.625 -166.625 778.1875 -163.375Q778.75 -160.125 780.5 -155.625L859.375 31.875L667.125 485.625Q664.25 493.125 664.25 497.5Q665.5 506.75 671.8125 513.375Q678.125 520.0 687.375 520.0H800.875Q814 520 820.4375 513.3125Q826.875 506.625 829.5 499.375L943.75 208.375L1061.375 499.375Q1065.0 507.25 1071.5625 513.625Q1078.125 520.0 1091.25 520.0H1203.125Q1211.75 520.0 1218.375 513.6875Q1225.0 507.375 1225.0 499.375Q1225.0 493.75 1222.125 485.625L939.375 -169.375Q935.75 -177.25 928.875 -183.625Q922 -190 908.875 -190.0ZM1454.75 -10.0Q1401.125 -10.0 1358.4375 10.625Q1315.75 31.25 1291.0625 66.3125Q1266.375 101.375 1266.375 145.25Q1266.375 216.375 1324.1875 257.6875Q1382 299 1477.5 314.125L1603 333V346.75Q1603.0 382.875 1588.0 401.8125Q1573.0 420.75 1533.25 420.75Q1505.0 420.75 1487.6875 409.625Q1470.375 398.5 1459.625 379.875Q1450.875 367.375 1435.0 367.375H1322.75Q1312.0 367.375 1306.0625 373.5625Q1300.125 379.75 1300.75 389.375Q1301.375 406.5 1314.6875 430.3125Q1328.0 454.125 1355.9375 476.8125Q1383.875 499.5 1427.9375 514.75Q1472 530 1534.5 530.0Q1599.125 530.0 1645.125 514.9375Q1691.125 499.875 1719.8125 473.125Q1748.5 446.375 1762.1875 409.4375Q1775.875 372.5 1775.875 329.375V25.125Q1775.875 14.5 1768.625 7.25Q1761.375 0.0 1750.75 0.0H1635Q1624.375 0.0 1617.125 7.25Q1609.875 14.5 1609.875 25.125V60.25Q1596.625 41.0 1574.9375 25.1875Q1553.25 9.375 1523.4375 -0.3125Q1493.625 -10.0 1454.75 -10.0ZM1501.625 104.25Q1531.375 104.25 1554.6875 116.75Q1578.0 129.25 1591.4375 155.75Q1604.875 182.25 1604.875 222.125V235.5L1519.625 220.625Q1472.625 212.75 1451.25 196.375Q1429.875 180.0 1429.875 157.75Q1429.875 141.0 1439.8125 129.0625Q1449.75 117.125 1466.125 110.6875Q1482.5 104.25 1501.625 104.25ZM1913.625 0.0Q1903 0 1895.75 7.25Q1888.5 14.5 1888.5 25.125V494.875Q1888.5 505.5 1895.75 512.75Q1903 520 1913.625 520.0H2031.875Q2042.5 520.0 2049.75 512.75Q2057.0 505.5 2057.0 494.875V25.125Q2057.0 14.5 2049.75 7.25Q2042.5 0.0 2031.875 0.0ZM1912.625 594.5Q1902.0 594.5 1894.75 601.75Q1887.5 609.0 1887.5 619.625V709.5Q1887.5 720.125 1894.75 727.5625Q1902 735 1912.625 735.0H2032.5Q2043.125 735.0 2050.5625 727.5625Q2058.0 720.125 2058.0 709.5V619.625Q2058 609 2050.5625 601.75Q2043.125 594.5 2032.5 594.5ZM2421.25 -10.0Q2336.75 -10.0 2279.1875 16.875Q2221.625 43.75 2191.125 94.5Q2160.625 145.25 2156.75 214.875Q2155.75 234.875 2155.75 260.3125Q2155.75 285.75 2156.75 305.125Q2160.625 375.75 2192.6875 426.0Q2224.75 476.25 2282.3125 503.125Q2339.875 530.0 2421.25 530.0Q2502.625 530.0 2560.1875 503.125Q2617.75 476.25 2649.8125 426.0Q2681.875 375.75 2685.75 305.125Q2687.375 285.75 2687.375 260.3125Q2687.375 234.875 2685.75 214.875Q2681.875 145.25 2651.375 94.5Q2620.875 43.75 2563.3125 16.875Q2505.75 -10.0 2421.25 -10.0ZM2421.25 111.75Q2465.625 111.75 2486.5 138.9375Q2507.375 166.125 2509.75 219.875Q2510.75 234.875 2510.75 260.0Q2510.75 285.125 2509.75 300.125Q2507.375 353.0 2486.5 380.625Q2465.625 408.25 2421.25 408.25Q2377.5 408.25 2356.3125 380.625Q2335.125 353.0 2332.75 300.125Q2331.75 285.125 2331.75 260.0Q2331.75 234.875 2332.75 219.875Q2335.125 166.125 2356.3125 138.9375Q2377.5 111.75 2421.25 111.75ZM2810.625 0.0Q2800 0 2792.75 7.25Q2785.5 14.5 2785.5 25.125V494.875Q2785.5 505.5 2792.75 512.75Q2800 520 2810.625 520.0H2926.375Q2937 520 2944.25 512.75Q2951.5 505.5 2951.5 494.875V456.625Q2977.25 487.875 3019.1875 508.9375Q3061.125 530.0 3118.25 530.0Q3175.625 530.0 3220.1875 503.9375Q3264.75 477.875 3290.375 427.6875Q3316.0 377.5 3316.0 304.125V25.125Q3316.0 14.5 3308.75 7.25Q3301.5 0.0 3290.875 0.0H3165.125Q3154.5 0.0 3147.25 7.25Q3140.0 14.5 3140.0 25.125V297.875Q3140.0 344.75 3117.25 370.5625Q3094.5 396.375 3051.375 396.375Q3009.75 396.375 2985.3125 370.5625Q2960.875 344.75 2960.875 297.875V25.125Q2960.875 14.5 2953.625 7.25Q2946.375 0.0 2935.75 0.0Z" fill="#111827"/>
  <path d="M14 7 Q8 23 5 37" fill="none" stroke="#2563EB" stroke-width="5.5" stroke-linecap="round" transform="translate(201.58,9) scale(0.82)"/>
  <path transform="translate(223.58,48.00) scale(0.03400,-0.03400)" d="M325.375 0.0Q260.875 0.0 214.3125 20.4375Q167.75 40.875 142.9375 84.5Q118.125 128.125 118.125 197.0V388.875H39.5Q28.875 388.875 21.625 396.125Q14.375 403.375 14.375 414.0V494.875Q14.375 505.5 21.625 512.75Q28.875 520.0 39.5 520.0H118.125V684.875Q118.125 695.5 125.375 702.75Q132.625 710.0 143.25 710.0H259Q269.625 710.0 276.875 702.75Q284.125 695.5 284.125 684.875V520.0H409.375Q420 520 427.25 512.75Q434.5 505.5 434.5 494.875V414.0Q434.5 403.375 427.25 396.125Q420.0 388.875 409.375 388.875H284.125V211.0Q284.125 176.75 297.25 157.0625Q310.375 137.375 341.0 137.375H418.125Q428.75 137.375 436.0 130.125Q443.25 122.875 443.25 112.25V25.125Q443.25 14.5 436.0 7.25Q428.75 0.0 418.125 0.0ZM766 -10Q647.75 -10.0 577.9375 54.125Q508.125 118.25 505.125 244.375Q504.75 251.25 504.75 261.875Q504.75 272.5 505.125 278.75Q508.25 358.0 540.5625 414.375Q572.875 470.75 630.375 500.375Q687.875 530.0 765.375 530.0Q852.875 530.0 910.625 494.9375Q968.375 459.875 997.375 399.6875Q1026.375 339.5 1026.375 263.25V238.875Q1026.375 228.25 1018.9375 221.0Q1011.5 213.75 1000.875 213.75H681.125Q681.125 213.125 681.125 211.0Q681.125 208.875 681.125 206.875Q681.875 177.5 691.1875 153.875Q700.5 130.25 719.25 116.3125Q738.0 102.375 764.75 102.375Q784.625 102.375 798.125 108.5Q811.625 114.625 820.8125 123.25Q830.0 131.875 835 138Q844.0 148.5 849.625 151.0Q855.25 153.5 866.875 153.5H991.0Q1000.625 153.5 1007.125 147.6875Q1013.625 141.875 1012.625 132.25Q1011.625 115.125 995.875 90.875Q980.125 66.625 949.5625 43.5Q919.0 20.375 872.875 5.1875Q826.75 -10.0 766 -10ZM681.125 312.875H850.375V315.0Q850.375 347.5 840.4375 371.25Q830.5 395.0 811.375 407.875Q792.25 420.75 765.375 420.75Q738.5 420.75 719.5625 407.875Q700.625 395.0 690.875 371.25Q681.125 347.5 681.125 315.0ZM1359 -10Q1285.25 -10.0 1228.125 16.875Q1171.0 43.75 1137.6875 95.125Q1104.375 146.5 1101.125 219.375Q1100.125 235.0 1100.125 259.375Q1100.125 283.75 1101.125 300.0Q1104.375 373.25 1137.375 424.75Q1170.375 476.25 1227.8125 503.125Q1285.25 530.0 1359 530Q1428.25 530.0 1477.375 510.5Q1526.5 491.0 1557.4375 461.875Q1588.375 432.75 1603.5625 402.25Q1618.75 371.75 1619.75 349.125Q1620.75 338.5 1612.8125 331.25Q1604.875 324.0 1594.625 324.0H1467.5Q1456.875 324.0 1451.125 329.125Q1445.375 334.25 1440.375 344.375Q1428.125 374.5 1409.75 387.9375Q1391.375 401.375 1362.125 401.375Q1322.25 401.375 1300.5625 375.1875Q1278.875 349.0 1277.125 295.0Q1275.75 255.0 1277.125 224.375Q1279.5 169.125 1300.875 143.875Q1322.25 118.625 1362.125 118.625Q1393.25 118.625 1411.0 132.0625Q1428.75 145.5 1440.375 175.625Q1444.75 185.75 1450.8125 190.875Q1456.875 196.0 1467.5 196.0H1594.625Q1604.875 196.0 1612.8125 188.75Q1620.75 181.5 1619.75 170.875Q1618.75 154.5 1609.8125 131.5625Q1600.875 108.625 1581.875 83.875Q1562.875 59.125 1532.625 37.8125Q1502.375 16.5 1459.1875 3.25Q1416 -10 1359 -10ZM1735 0Q1724.375 0.0 1717.125 7.25Q1709.875 14.5 1709.875 25.125V684.875Q1709.875 695.5 1717.125 702.75Q1724.375 710.0 1735 710H1863.25Q1873.875 710.0 1881.125 702.75Q1888.375 695.5 1888.375 684.875V461.625Q1914.75 492.875 1954.1875 511.4375Q1993.625 530.0 2046.375 530.0Q2103.75 530.0 2149.25 503.9375Q2194.75 477.875 2221.0 427.6875Q2247.25 377.5 2247.25 304.125V25.125Q2247.25 14.5 2240.0 7.25Q2232.75 0.0 2222.125 0.0H2093.25Q2082.625 0.0 2075.375 7.25Q2068.125 14.5 2068.125 25.125V297.875Q2068.125 344.75 2045.375 370.5625Q2022.625 396.375 1979.5 396.375Q1937.875 396.375 1913.125 370.5625Q1888.375 344.75 1888.375 297.875V25.125Q1888.375 14.5 1881.125 7.25Q1873.875 0.0 1863.25 0.0Z" fill="#2563EB"/>
</svg>
